<svg width="757" height="757" viewBox="0 0 757 757" fill="none" xmlns="http://www.w3.org/2000/svg">
<path d="M445.692 463.107C572.174 362.609 644.541 243.17 607.327 196.335C570.113 149.499 437.411 193.002 310.928 293.501C184.446 394 112.079 513.438 149.293 560.274C186.507 607.109 319.209 563.606 445.692 463.107Z" stroke="url(#paint0_linear_1824_253)" stroke-width="1.48393" stroke-miterlimit="10"/>
<path d="M454.309 467.607C576.259 363.821 641.09 239.703 599.115 190.381C557.139 141.059 424.252 185.21 302.302 288.995C180.353 392.781 115.521 516.899 157.497 566.221C199.472 615.543 332.36 571.392 454.309 467.607Z" stroke="url(#paint1_linear_1824_253)" stroke-width="1.48393" stroke-miterlimit="10"/>
<path d="M463.784 472.39C581.618 365.321 638.872 236.408 591.665 184.453C544.457 132.499 410.664 177.178 292.83 284.247C174.995 391.316 117.741 520.23 164.948 572.184C212.156 624.138 345.949 579.459 463.784 472.39Z" stroke="url(#paint2_linear_1824_253)" stroke-width="1.48393" stroke-miterlimit="10"/>
<path d="M474.097 477.397C588.22 367.038 637.85 233.227 584.948 178.521C532.047 123.816 396.647 168.932 282.525 279.291C168.402 389.65 118.772 523.461 171.673 578.167C224.575 632.872 359.975 587.756 474.097 477.397Z" stroke="url(#paint3_linear_1824_253)" stroke-width="1.48393" stroke-miterlimit="10"/>
<path d="M485.208 482.493C595.99 368.814 637.937 230.017 578.897 172.482C519.858 114.948 382.19 160.462 271.408 274.142C160.625 387.821 118.679 526.618 177.718 584.153C236.757 641.688 374.425 596.173 485.208 482.493Z" stroke="url(#paint4_linear_1824_253)" stroke-width="1.48393" stroke-miterlimit="10"/>
<path d="M497.047 487.77C604.869 370.764 639.114 226.923 573.536 166.494C507.959 106.064 367.391 151.929 259.57 268.935C151.749 385.942 117.504 529.782 183.081 590.212C248.658 650.641 389.226 604.776 497.047 487.77Z" stroke="url(#paint5_linear_1824_253)" stroke-width="1.48393" stroke-miterlimit="10"/>
<path d="M509.573 493.069C614.763 372.702 641.267 223.765 568.771 160.41C496.274 97.0545 352.231 143.272 247.041 263.639C141.85 384.007 115.347 532.943 187.843 596.299C260.339 659.654 404.383 613.436 509.573 493.069Z" stroke="url(#paint6_linear_1824_253)" stroke-width="1.48393" stroke-miterlimit="10"/>
<path d="M522.731 498.362C625.598 374.593 644.327 220.517 564.564 154.225C484.801 87.933 336.751 134.527 233.884 258.297C131.018 382.066 112.288 536.141 192.051 602.433C271.814 668.725 419.864 622.131 522.731 498.362Z" stroke="url(#paint7_linear_1824_253)" stroke-width="1.48393" stroke-miterlimit="10"/>
<path d="M536.454 503.643C637.277 376.439 648.203 217.197 560.857 147.966C473.512 78.7359 320.972 125.733 220.149 252.938C119.325 380.143 108.4 539.385 195.745 608.615C283.09 677.845 435.631 630.848 536.454 503.643Z" stroke="url(#paint8_linear_1824_253)" stroke-width="1.48393" stroke-miterlimit="10"/>
<path d="M550.682 509.051C649.754 378.389 652.895 213.951 557.698 141.77C462.501 69.5883 305.014 116.997 205.942 247.659C106.87 378.321 103.728 542.759 198.926 614.94C294.123 687.122 451.609 639.714 550.682 509.051Z" stroke="url(#paint9_linear_1824_253)" stroke-width="1.48393" stroke-miterlimit="10"/>
<path d="M565.387 514.277C662.911 380.098 658.212 210.448 554.891 135.352C451.571 60.2557 288.753 108.152 191.229 242.33C93.7051 376.509 98.4043 546.16 201.725 621.256C305.046 696.352 467.863 648.456 565.387 514.277Z" stroke="url(#paint10_linear_1824_253)" stroke-width="1.48393" stroke-miterlimit="10"/>
<path d="M580.49 519.605C676.708 381.888 664.19 207.004 552.53 128.992C440.871 50.9798 272.353 99.3803 176.135 237.098C79.9171 374.815 92.4351 549.698 204.095 627.711C315.754 705.723 484.272 657.322 580.49 519.605Z" stroke="url(#paint11_linear_1824_253)" stroke-width="1.48393" stroke-miterlimit="10"/>
<path d="M595.985 524.729C691.058 383.408 670.67 203.28 550.448 122.401C430.225 41.5217 255.694 90.5189 160.621 231.839C65.5486 373.16 85.9366 553.288 206.159 634.167C326.382 715.046 500.913 666.049 595.985 524.729Z" stroke="url(#paint12_linear_1824_253)" stroke-width="1.48393" stroke-miterlimit="10"/>
<path d="M611.788 529.935C705.92 384.988 677.693 199.597 548.742 115.853C419.791 32.1098 238.946 81.7254 144.814 226.673C50.6825 371.621 78.909 557.011 207.86 640.755C336.811 724.498 517.656 674.883 611.788 529.935Z" stroke="url(#paint13_linear_1824_253)" stroke-width="1.48393" stroke-miterlimit="10"/>
<path d="M627.9 535.048C721.239 386.429 685.157 195.767 547.31 109.193C409.462 22.6188 222.048 72.9164 128.709 221.536C35.3701 370.155 71.4515 560.816 209.299 647.391C347.147 733.965 534.561 683.667 627.9 535.048Z" stroke="url(#paint14_linear_1824_253)" stroke-width="1.48393" stroke-miterlimit="10"/>
<path d="M644.276 540.145C736.966 387.82 693.026 191.877 546.134 102.493C399.242 13.1091 205.023 64.1329 112.333 216.458C19.6434 368.783 63.5829 564.726 210.475 654.11C357.367 743.494 551.586 692.47 644.276 540.145Z" stroke="url(#paint15_linear_1824_253)" stroke-width="1.48393" stroke-miterlimit="10"/>
<path d="M323.579 701.89C502.286 732.118 671.662 611.751 701.89 433.043C732.118 254.336 611.751 84.9602 433.043 54.7323C254.336 24.5045 84.9602 144.871 54.7323 323.579C24.5045 502.286 144.871 671.662 323.579 701.89Z" stroke="url(#paint16_linear_1824_253)" stroke-width="1.48393" stroke-miterlimit="10"/>
<g filter="url(#filter0_f_1824_253)">
<path d="M445.692 463.107C572.174 362.609 644.541 243.17 607.327 196.335C570.113 149.499 437.411 193.002 310.928 293.501C184.446 394 112.079 513.438 149.293 560.274C186.507 607.109 319.209 563.606 445.692 463.107Z" stroke="url(#paint17_linear_1824_253)" stroke-width="1.48393" stroke-miterlimit="10"/>
<path d="M454.309 467.607C576.259 363.821 641.09 239.703 599.115 190.381C557.139 141.059 424.252 185.21 302.302 288.995C180.353 392.781 115.521 516.899 157.497 566.221C199.472 615.543 332.36 571.392 454.309 467.607Z" stroke="url(#paint18_linear_1824_253)" stroke-width="1.48393" stroke-miterlimit="10"/>
<path d="M463.784 472.39C581.618 365.321 638.872 236.408 591.665 184.453C544.457 132.499 410.664 177.178 292.83 284.247C174.995 391.316 117.741 520.23 164.948 572.184C212.156 624.138 345.949 579.459 463.784 472.39Z" stroke="url(#paint19_linear_1824_253)" stroke-width="1.48393" stroke-miterlimit="10"/>
<path d="M474.097 477.397C588.22 367.038 637.85 233.227 584.948 178.521C532.047 123.816 396.647 168.932 282.525 279.291C168.402 389.65 118.772 523.461 171.673 578.167C224.575 632.872 359.975 587.756 474.097 477.397Z" stroke="url(#paint20_linear_1824_253)" stroke-width="1.48393" stroke-miterlimit="10"/>
<path d="M485.208 482.493C595.99 368.814 637.937 230.017 578.897 172.482C519.858 114.948 382.19 160.462 271.408 274.142C160.625 387.821 118.679 526.618 177.718 584.153C236.757 641.688 374.425 596.173 485.208 482.493Z" stroke="url(#paint21_linear_1824_253)" stroke-width="1.48393" stroke-miterlimit="10"/>
<path d="M497.047 487.77C604.869 370.764 639.114 226.923 573.536 166.494C507.959 106.064 367.391 151.929 259.57 268.935C151.749 385.942 117.504 529.782 183.081 590.212C248.658 650.641 389.226 604.776 497.047 487.77Z" stroke="url(#paint22_linear_1824_253)" stroke-width="1.48393" stroke-miterlimit="10"/>
<path d="M509.573 493.069C614.763 372.702 641.267 223.765 568.771 160.41C496.274 97.0545 352.231 143.272 247.041 263.639C141.85 384.007 115.347 532.943 187.843 596.299C260.339 659.654 404.383 613.436 509.573 493.069Z" stroke="url(#paint23_linear_1824_253)" stroke-width="1.48393" stroke-miterlimit="10"/>
<path d="M522.731 498.362C625.598 374.593 644.327 220.517 564.564 154.225C484.801 87.933 336.751 134.527 233.884 258.297C131.018 382.066 112.288 536.141 192.051 602.433C271.814 668.725 419.864 622.131 522.731 498.362Z" stroke="url(#paint24_linear_1824_253)" stroke-width="1.48393" stroke-miterlimit="10"/>
<path d="M536.454 503.643C637.277 376.439 648.203 217.197 560.857 147.966C473.512 78.7359 320.972 125.733 220.149 252.938C119.325 380.143 108.4 539.385 195.745 608.615C283.09 677.845 435.631 630.848 536.454 503.643Z" stroke="url(#paint25_linear_1824_253)" stroke-width="1.48393" stroke-miterlimit="10"/>
<path d="M550.682 509.051C649.754 378.389 652.895 213.951 557.698 141.77C462.501 69.5883 305.014 116.997 205.942 247.659C106.87 378.321 103.728 542.759 198.926 614.94C294.123 687.122 451.609 639.714 550.682 509.051Z" stroke="url(#paint26_linear_1824_253)" stroke-width="1.48393" stroke-miterlimit="10"/>
<path d="M565.387 514.277C662.911 380.098 658.212 210.448 554.891 135.352C451.571 60.2557 288.753 108.152 191.229 242.33C93.7051 376.509 98.4043 546.16 201.725 621.256C305.046 696.352 467.863 648.456 565.387 514.277Z" stroke="url(#paint27_linear_1824_253)" stroke-width="1.48393" stroke-miterlimit="10"/>
<path d="M580.49 519.605C676.708 381.888 664.19 207.004 552.53 128.992C440.871 50.9798 272.353 99.3803 176.135 237.098C79.9171 374.815 92.4351 549.698 204.095 627.711C315.754 705.723 484.272 657.322 580.49 519.605Z" stroke="url(#paint28_linear_1824_253)" stroke-width="1.48393" stroke-miterlimit="10"/>
<path d="M595.985 524.729C691.058 383.408 670.67 203.28 550.448 122.401C430.225 41.5217 255.694 90.5189 160.621 231.839C65.5486 373.16 85.9366 553.288 206.159 634.167C326.382 715.046 500.913 666.049 595.985 524.729Z" stroke="url(#paint29_linear_1824_253)" stroke-width="1.48393" stroke-miterlimit="10"/>
<path d="M611.788 529.935C705.92 384.988 677.693 199.597 548.742 115.853C419.791 32.1098 238.946 81.7254 144.814 226.673C50.6825 371.621 78.909 557.011 207.86 640.755C336.811 724.498 517.656 674.883 611.788 529.935Z" stroke="url(#paint30_linear_1824_253)" stroke-width="1.48393" stroke-miterlimit="10"/>
<path d="M627.9 535.048C721.239 386.429 685.157 195.767 547.31 109.193C409.462 22.6188 222.048 72.9164 128.709 221.536C35.3701 370.155 71.4515 560.816 209.299 647.391C347.147 733.965 534.561 683.667 627.9 535.048Z" stroke="url(#paint31_linear_1824_253)" stroke-width="1.48393" stroke-miterlimit="10"/>
<path d="M644.276 540.145C736.966 387.82 693.026 191.877 546.134 102.493C399.242 13.1091 205.023 64.1329 112.333 216.458C19.6434 368.783 63.5829 564.726 210.475 654.11C357.367 743.494 551.586 692.47 644.276 540.145Z" stroke="url(#paint32_linear_1824_253)" stroke-width="1.48393" stroke-miterlimit="10"/>
<path d="M323.579 701.89C502.286 732.118 671.662 611.751 701.89 433.043C732.118 254.336 611.751 84.9602 433.043 54.7323C254.336 24.5045 84.9602 144.871 54.7323 323.579C24.5045 502.286 144.871 671.662 323.579 701.89Z" stroke="url(#paint33_linear_1824_253)" stroke-width="1.48393" stroke-miterlimit="10"/>
</g>
<defs>
<filter id="filter0_f_1824_253" x="27.0829" y="27.0829" width="702.457" height="702.457" filterUnits="userSpaceOnUse" color-interpolation-filters="sRGB">
<feFlood flood-opacity="0" result="BackgroundImageFix"/>
<feBlend mode="normal" in="SourceGraphic" in2="BackgroundImageFix" result="shape"/>
<feGaussianBlur stdDeviation="11.1295" result="effect1_foregroundBlur_1824_253"/>
</filter>
<linearGradient id="paint0_linear_1824_253" x1="433.043" y1="54.7323" x2="323.579" y2="701.89" gradientUnits="userSpaceOnUse">
<stop stop-color="#DF30FD"/>
<stop offset="0.485275" stop-color="#0DEBF9"/>
<stop offset="1" stop-color="#40E9CB"/>
</linearGradient>
<linearGradient id="paint1_linear_1824_253" x1="433.043" y1="54.7323" x2="323.579" y2="701.89" gradientUnits="userSpaceOnUse">
<stop stop-color="#DF30FD"/>
<stop offset="0.485275" stop-color="#0DEBF9"/>
<stop offset="1" stop-color="#40E9CB"/>
</linearGradient>
<linearGradient id="paint2_linear_1824_253" x1="433.043" y1="54.7323" x2="323.579" y2="701.89" gradientUnits="userSpaceOnUse">
<stop stop-color="#DF30FD"/>
<stop offset="0.485275" stop-color="#0DEBF9"/>
<stop offset="1" stop-color="#40E9CB"/>
</linearGradient>
<linearGradient id="paint3_linear_1824_253" x1="433.043" y1="54.7323" x2="323.579" y2="701.89" gradientUnits="userSpaceOnUse">
<stop stop-color="#DF30FD"/>
<stop offset="0.485275" stop-color="#0DEBF9"/>
<stop offset="1" stop-color="#40E9CB"/>
</linearGradient>
<linearGradient id="paint4_linear_1824_253" x1="433.043" y1="54.7323" x2="323.579" y2="701.89" gradientUnits="userSpaceOnUse">
<stop stop-color="#DF30FD"/>
<stop offset="0.485275" stop-color="#0DEBF9"/>
<stop offset="1" stop-color="#40E9CB"/>
</linearGradient>
<linearGradient id="paint5_linear_1824_253" x1="433.043" y1="54.7323" x2="323.579" y2="701.89" gradientUnits="userSpaceOnUse">
<stop stop-color="#DF30FD"/>
<stop offset="0.485275" stop-color="#0DEBF9"/>
<stop offset="1" stop-color="#40E9CB"/>
</linearGradient>
<linearGradient id="paint6_linear_1824_253" x1="433.043" y1="54.7323" x2="323.579" y2="701.89" gradientUnits="userSpaceOnUse">
<stop stop-color="#DF30FD"/>
<stop offset="0.485275" stop-color="#0DEBF9"/>
<stop offset="1" stop-color="#40E9CB"/>
</linearGradient>
<linearGradient id="paint7_linear_1824_253" x1="433.043" y1="54.7323" x2="323.579" y2="701.89" gradientUnits="userSpaceOnUse">
<stop stop-color="#DF30FD"/>
<stop offset="0.485275" stop-color="#0DEBF9"/>
<stop offset="1" stop-color="#40E9CB"/>
</linearGradient>
<linearGradient id="paint8_linear_1824_253" x1="433.043" y1="54.7323" x2="323.579" y2="701.89" gradientUnits="userSpaceOnUse">
<stop stop-color="#DF30FD"/>
<stop offset="0.485275" stop-color="#0DEBF9"/>
<stop offset="1" stop-color="#40E9CB"/>
</linearGradient>
<linearGradient id="paint9_linear_1824_253" x1="433.043" y1="54.7323" x2="323.579" y2="701.89" gradientUnits="userSpaceOnUse">
<stop stop-color="#DF30FD"/>
<stop offset="0.485275" stop-color="#0DEBF9"/>
<stop offset="1" stop-color="#40E9CB"/>
</linearGradient>
<linearGradient id="paint10_linear_1824_253" x1="433.043" y1="54.7323" x2="323.579" y2="701.89" gradientUnits="userSpaceOnUse">
<stop stop-color="#DF30FD"/>
<stop offset="0.485275" stop-color="#0DEBF9"/>
<stop offset="1" stop-color="#40E9CB"/>
</linearGradient>
<linearGradient id="paint11_linear_1824_253" x1="433.043" y1="54.7323" x2="323.579" y2="701.89" gradientUnits="userSpaceOnUse">
<stop stop-color="#DF30FD"/>
<stop offset="0.485275" stop-color="#0DEBF9"/>
<stop offset="1" stop-color="#40E9CB"/>
</linearGradient>
<linearGradient id="paint12_linear_1824_253" x1="433.043" y1="54.7323" x2="323.579" y2="701.89" gradientUnits="userSpaceOnUse">
<stop stop-color="#DF30FD"/>
<stop offset="0.485275" stop-color="#0DEBF9"/>
<stop offset="1" stop-color="#40E9CB"/>
</linearGradient>
<linearGradient id="paint13_linear_1824_253" x1="433.043" y1="54.7323" x2="323.579" y2="701.89" gradientUnits="userSpaceOnUse">
<stop stop-color="#DF30FD"/>
<stop offset="0.485275" stop-color="#0DEBF9"/>
<stop offset="1" stop-color="#40E9CB"/>
</linearGradient>
<linearGradient id="paint14_linear_1824_253" x1="433.043" y1="54.7323" x2="323.579" y2="701.89" gradientUnits="userSpaceOnUse">
<stop stop-color="#DF30FD"/>
<stop offset="0.485275" stop-color="#0DEBF9"/>
<stop offset="1" stop-color="#40E9CB"/>
</linearGradient>
<linearGradient id="paint15_linear_1824_253" x1="433.043" y1="54.7323" x2="323.579" y2="701.89" gradientUnits="userSpaceOnUse">
<stop stop-color="#DF30FD"/>
<stop offset="0.485275" stop-color="#0DEBF9"/>
<stop offset="1" stop-color="#40E9CB"/>
</linearGradient>
<linearGradient id="paint16_linear_1824_253" x1="433.043" y1="54.7323" x2="323.579" y2="701.89" gradientUnits="userSpaceOnUse">
<stop stop-color="#DF30FD"/>
<stop offset="0.485275" stop-color="#0DEBF9"/>
<stop offset="1" stop-color="#40E9CB"/>
</linearGradient>
<linearGradient id="paint17_linear_1824_253" x1="433.043" y1="54.7323" x2="323.579" y2="701.89" gradientUnits="userSpaceOnUse">
<stop stop-color="#DF30FD"/>
<stop offset="0.485275" stop-color="#0DEBF9"/>
<stop offset="1" stop-color="#40E9CB"/>
</linearGradient>
<linearGradient id="paint18_linear_1824_253" x1="433.043" y1="54.7323" x2="323.579" y2="701.89" gradientUnits="userSpaceOnUse">
<stop stop-color="#DF30FD"/>
<stop offset="0.485275" stop-color="#0DEBF9"/>
<stop offset="1" stop-color="#40E9CB"/>
</linearGradient>
<linearGradient id="paint19_linear_1824_253" x1="433.043" y1="54.7323" x2="323.579" y2="701.89" gradientUnits="userSpaceOnUse">
<stop stop-color="#DF30FD"/>
<stop offset="0.485275" stop-color="#0DEBF9"/>
<stop offset="1" stop-color="#40E9CB"/>
</linearGradient>
<linearGradient id="paint20_linear_1824_253" x1="433.043" y1="54.7323" x2="323.579" y2="701.89" gradientUnits="userSpaceOnUse">
<stop stop-color="#DF30FD"/>
<stop offset="0.485275" stop-color="#0DEBF9"/>
<stop offset="1" stop-color="#40E9CB"/>
</linearGradient>
<linearGradient id="paint21_linear_1824_253" x1="433.043" y1="54.7323" x2="323.579" y2="701.89" gradientUnits="userSpaceOnUse">
<stop stop-color="#DF30FD"/>
<stop offset="0.485275" stop-color="#0DEBF9"/>
<stop offset="1" stop-color="#40E9CB"/>
</linearGradient>
<linearGradient id="paint22_linear_1824_253" x1="433.043" y1="54.7323" x2="323.579" y2="701.89" gradientUnits="userSpaceOnUse">
<stop stop-color="#DF30FD"/>
<stop offset="0.485275" stop-color="#0DEBF9"/>
<stop offset="1" stop-color="#40E9CB"/>
</linearGradient>
<linearGradient id="paint23_linear_1824_253" x1="433.043" y1="54.7323" x2="323.579" y2="701.89" gradientUnits="userSpaceOnUse">
<stop stop-color="#DF30FD"/>
<stop offset="0.485275" stop-color="#0DEBF9"/>
<stop offset="1" stop-color="#40E9CB"/>
</linearGradient>
<linearGradient id="paint24_linear_1824_253" x1="433.043" y1="54.7323" x2="323.579" y2="701.89" gradientUnits="userSpaceOnUse">
<stop stop-color="#DF30FD"/>
<stop offset="0.485275" stop-color="#0DEBF9"/>
<stop offset="1" stop-color="#40E9CB"/>
</linearGradient>
<linearGradient id="paint25_linear_1824_253" x1="433.043" y1="54.7323" x2="323.579" y2="701.89" gradientUnits="userSpaceOnUse">
<stop stop-color="#DF30FD"/>
<stop offset="0.485275" stop-color="#0DEBF9"/>
<stop offset="1" stop-color="#40E9CB"/>
</linearGradient>
<linearGradient id="paint26_linear_1824_253" x1="433.043" y1="54.7323" x2="323.579" y2="701.89" gradientUnits="userSpaceOnUse">
<stop stop-color="#DF30FD"/>
<stop offset="0.485275" stop-color="#0DEBF9"/>
<stop offset="1" stop-color="#40E9CB"/>
</linearGradient>
<linearGradient id="paint27_linear_1824_253" x1="433.043" y1="54.7323" x2="323.579" y2="701.89" gradientUnits="userSpaceOnUse">
<stop stop-color="#DF30FD"/>
<stop offset="0.485275" stop-color="#0DEBF9"/>
<stop offset="1" stop-color="#40E9CB"/>
</linearGradient>
<linearGradient id="paint28_linear_1824_253" x1="433.043" y1="54.7323" x2="323.579" y2="701.89" gradientUnits="userSpaceOnUse">
<stop stop-color="#DF30FD"/>
<stop offset="0.485275" stop-color="#0DEBF9"/>
<stop offset="1" stop-color="#40E9CB"/>
</linearGradient>
<linearGradient id="paint29_linear_1824_253" x1="433.043" y1="54.7323" x2="323.579" y2="701.89" gradientUnits="userSpaceOnUse">
<stop stop-color="#DF30FD"/>
<stop offset="0.485275" stop-color="#0DEBF9"/>
<stop offset="1" stop-color="#40E9CB"/>
</linearGradient>
<linearGradient id="paint30_linear_1824_253" x1="433.043" y1="54.7323" x2="323.579" y2="701.89" gradientUnits="userSpaceOnUse">
<stop stop-color="#DF30FD"/>
<stop offset="0.485275" stop-color="#0DEBF9"/>
<stop offset="1" stop-color="#40E9CB"/>
</linearGradient>
<linearGradient id="paint31_linear_1824_253" x1="433.043" y1="54.7323" x2="323.579" y2="701.89" gradientUnits="userSpaceOnUse">
<stop stop-color="#DF30FD"/>
<stop offset="0.485275" stop-color="#0DEBF9"/>
<stop offset="1" stop-color="#40E9CB"/>
</linearGradient>
<linearGradient id="paint32_linear_1824_253" x1="433.043" y1="54.7323" x2="323.579" y2="701.89" gradientUnits="userSpaceOnUse">
<stop stop-color="#DF30FD"/>
<stop offset="0.485275" stop-color="#0DEBF9"/>
<stop offset="1" stop-color="#40E9CB"/>
</linearGradient>
<linearGradient id="paint33_linear_1824_253" x1="433.043" y1="54.7323" x2="323.579" y2="701.89" gradientUnits="userSpaceOnUse">
<stop stop-color="#DF30FD"/>
<stop offset="0.485275" stop-color="#0DEBF9"/>
<stop offset="1" stop-color="#40E9CB"/>
</linearGradient>
</defs>
</svg>
