<svg class="fill-light/20" width="230" height="230" viewBox="0 0 230 230" xmlns="http://www.w3.org/2000/svg">
<path fill-rule="evenodd" clip-rule="evenodd" 
d="M3.5 172.603C36.9004 158.066 53.6003 140.985 53.6003 121.36C39.3641 119.906 27.592 114.758 18.2837 105.914C8.97539 97.071 4.32132 86.8347 4.32132 75.205C4.32132 62.8485 8.83851 52.4304 17.873 43.9505C26.9076 35.4705 38.269 31.2306 51.9577 31.2306C67.289 31.2306 80.5668 36.7425 91.7916 47.7664C103.016 58.7904 108.629 72.1764 108.629 87.9249C108.629 135.17 78.7877 172.118 19.105 198.769L3.5 172.603ZM121.371 172.603C155.046 158.066 171.882 140.985 171.882 121.36C157.372 119.906 145.463 114.758 136.155 105.914C126.847 97.071 122.193 86.8347 122.193 75.205C122.193 62.8485 126.778 52.4304 135.95 43.9505C145.121 35.4705 156.551 31.2306 170.24 31.2306C185.571 31.2306 198.78 36.7425 209.868 47.7664C220.956 58.7904 226.5 72.1764 226.5 87.9249C226.5 135.17 196.796 172.118 137.387 198.769L121.371 172.603Z" 
/>
</svg>

